<?xml version="1.0" standalone="no"?><!DOCTYPE svg PUBLIC "-//W3C//DTD SVG 1.1//EN"
        "http://www.w3.org/Graphics/SVG/1.1/DTD/svg11.dtd">
<svg t="1652343158977" class="icon" viewBox="0 0 1024 1024" version="1.1" xmlns="http://www.w3.org/2000/svg"
     p-id="12252" width="200" height="200">
    <defs>
        <style type="text/css"></style>
    </defs>
    <path d="M0 512c0 282.77248 229.22752 512 512 512s512-229.22752 512-512S794.77248 0 512 0 0 229.22752 0 512z"
          fill="#F08400" p-id="12253"></path>
    <path d="M757.76 725.32992H266.24a33.69984 33.69984 0 0 1-33.70496-33.69984V400.21504a33.71008 33.71008 0 0 1 33.70496-33.28h100.69504c33.70496 0 42.66496-66.98496 66.98496-66.98496h145.07008c33.28 0 46.08 66.98496 78.08 66.98496h100.25984a33.71008 33.71008 0 0 1 33.71008 33.28v290.13504a33.70496 33.70496 0 0 1-33.71008 33.69984l0.43008 1.28z m-245.76-325.11488c-73.99424 0-133.97504 59.9808-133.97504 133.97504 0 73.98912 59.9808 133.96992 133.97504 133.96992 73.98912 0 133.96992-59.9808 133.96992-133.96992 0-73.99424-59.9808-133.97504-133.96992-133.97504z m161.71008 0a16.64 16.64 0 1 0 0 33.28 16.64 16.64 0 0 0 0-33.28zM512 634.88c-55.61344 0-100.69504-45.0816-100.69504-100.68992 0-55.61344 45.0816-100.69504 100.69504-100.69504 55.60832 0 100.68992 45.0816 100.68992 100.69504 0 55.60832-45.0816 100.68992-100.68992 100.68992zM288.85504 333.22496a11.10016 11.10016 0 0 1 9.81504-11.09504h33.70496c6.12864 0 11.09504 4.9664 11.09504 11.09504v11.09504H288.85504v-11.09504z"
          fill="#FFFFFF" p-id="12254"></path>
</svg>