<?xml version="1.0" standalone="no"?><!DOCTYPE svg PUBLIC "-//W3C//DTD SVG 1.1//EN"
        "http://www.w3.org/Graphics/SVG/1.1/DTD/svg11.dtd">
<svg t="1650815333978" class="icon" viewBox="0 0 1024 1024" version="1.1" xmlns="http://www.w3.org/2000/svg" p-id="3268"
     width="200" height="200">
    <defs>
        <style type="text/css"></style>
    </defs>
    <path d="M855.04 10.24H627.712L512 216.064 405.504 417.792l106.496 184.32z" fill="#009BF5" p-id="3269"></path>
    <path d="M396.288 10.24H168.96l236.544 407.552L512 216.064z" fill="#3184B4" p-id="3270"></path>
    <path d="M367.616 10.24H198.656l222.208 380.928 75.776-149.504z" fill="#F1F1F1" p-id="3271"></path>
    <path d="M337.92 10.24H228.352L430.08 374.784 484.352 266.24z" fill="#D45E5E" p-id="3272"></path>
    <path d="M658.432 10.24h164.864L601.088 391.168 481.28 332.8z" fill="#F1F1F1" p-id="3273"></path>
    <path d="M688.128 10.24h105.472L571.392 391.168l-60.416-58.368z" fill="#F45656" p-id="3274"></path>
    <path d="M163.84 666.624a348.16 347.136 0 1 0 696.32 0 348.16 347.136 0 1 0-696.32 0Z" fill="#F9EA61"
          p-id="3275"></path>
    <path d="M242.688 666.624a269.312 268.288 0 1 0 538.624 0 269.312 268.288 0 1 0-538.624 0Z" fill="#FFAC09"
          p-id="3276"></path>
    <path d="M512 447.488c-121.856 0-220.16 98.304-220.16 219.136 0 68.608 31.744 130.048 81.92 169.984L645.12 492.544c-36.864-27.648-82.944-45.056-133.12-45.056z"
          fill="#FFBE31" p-id="3277"></path>
    <path d="M645.12 492.544L373.76 836.608c37.888 30.72 86.016 49.152 138.24 49.152 121.856 0 220.16-98.304 220.16-219.136 0-70.656-34.816-134.144-87.04-174.08z"
          fill="#FFD131" p-id="3278"></path>
    <path d="M552.96 573.44v177.152h-51.2v-101.376h-40.96v-35.84c30.72 1.024 48.128-12.288 53.248-39.936H552.96z"
          fill="#FFAC09" p-id="3279"></path>
    <path d="M558.08 577.536v177.152h-51.2v-101.376h-40.96v-35.84c30.72 1.024 48.128-12.288 53.248-39.936h38.912z"
          fill="#F9EA61" p-id="3280"></path>
    <path d="M563.2 582.656v177.152h-51.2v-101.376h-40.96v-35.84c30.72 1.024 48.128-12.288 53.248-39.936H563.2z"
          fill="#FFFFFF" p-id="3281"></path>
</svg>