<?xml version="1.0" standalone="no"?><!DOCTYPE svg PUBLIC "-//W3C//DTD SVG 1.1//EN"
        "http://www.w3.org/Graphics/SVG/1.1/DTD/svg11.dtd">
<svg t="1650852150122" class="icon" viewBox="0 0 1085 1024" version="1.1" xmlns="http://www.w3.org/2000/svg"
     p-id="50657" width="211.9140625" height="200">
    <defs>
        <style type="text/css"></style>
    </defs>
    <path d="M20.039139 1001.115303V220.430528a200.631859 200.631859 0 0 1 200.391389-200.391389h841.643836a1116.099883 1116.099883 0 0 1-120.956243 358.019256 1171.568219 1171.568219 0 0 1-228.686653 296.819726 1226.916321 1226.916321 0 0 1-314.41409 214.659257A1261.62411 1261.62411 0 0 1 20.039139 1001.115303z m159.030607-429.759373l-23.04501 21.16133 164.000313 178.628885 23.04501-21.161331L269.165714 669.307241l90.416595-83.002114 73.904345 80.477182 23.045009-21.161331L292.571429 467.152407l-23.085088 21.161331L340.665362 565.98544l-90.336438 82.962036-71.259178-77.551468z m305.276242-249.206732a106.287593 106.287593 0 0 0-73.142857 30.539647 111.297378 111.297378 0 0 0-40.078278 83.843758 133.741213 133.741213 0 0 0 39.837808 90.336438 126.246575 126.246575 0 0 0 82.761644 44.086106c3.246341 0.280548 6.332368 0.400783 9.218004 0.400783a108.892681 108.892681 0 0 0 74.745988-31.381292 109.413699 109.413699 0 0 0 38.835852-82.681487 134.021761 134.021761 0 0 0-40.078278-90.336439A127.208454 127.208454 0 0 0 494.165166 322.630137a116.427397 116.427397 0 0 0-9.819178-0.440861zM571.756712 248.485323l145.163523 158.068728 23.165244-21.281566-145.163522-157.988571 51.540665-47.292368-18.83679-20.520078-126.006106 115.746066 18.836791 20.520079 51.300195-47.25229z m-63.684383 291.60955a82.360861 82.360861 0 0 1-10.219961-0.641253 106.087202 106.087202 0 0 1-64.125245-36.75178 105.405871 105.405871 0 0 1-30.820195-67.612055A82.080313 82.080313 0 0 1 480.939335 352.688845a71.339335 71.339335 0 0 1 9.137847 0.561096 109.453777 109.453777 0 0 1 64.966888 38.755695 105.125323 105.125323 0 0 1 31.822153 67.371585 76.78998 76.78998 0 0 1-27.69409 60.117417 73.663875 73.663875 0 0 1-51.099804 20.680391z"
          p-id="50658"></path>
</svg>