<?xml version="1.0" standalone="no"?><!DOCTYPE svg PUBLIC "-//W3C//DTD SVG 1.1//EN"
        "http://www.w3.org/Graphics/SVG/1.1/DTD/svg11.dtd">
<svg t="1652703495017" class="icon" viewBox="0 0 1024 1024" version="1.1" xmlns="http://www.w3.org/2000/svg"
     p-id="11109" width="200" height="200">
    <defs>
        <style type="text/css"></style>
    </defs>
    <path d="M217.1392 890.112V429.3632c0-18.6368-12.544-33.7408-28.0064-33.7408H129.3824c-28.8256 0-52.224 28.16-52.224 62.9248v402.3296c0 34.7648 23.3984 62.9248 52.224 62.9248h59.7504c15.4624 0.0512 28.0064-15.0528 28.0064-33.6896zM278.528 899.5328V419.5328c0-11.0592 7.424-20.7872 18.1248-23.552 37.7344-9.6256 124.2112-44.1344 160.9728-161.9456 22.3744-103.168 46.7456-151.8592 118.7328-146.0224 72.0384 5.8368 76.9024 75.9296 76.9024 97.3312v165.4784s-5.8368 25.2928 18.4832 27.2384c24.32 1.9456 214.1184 0 214.1184 0s104.1408-1.792 71.0656 127.5904c-28.7744 112.4864-85.76 293.5296-100.1472 338.7904a101.2224 101.2224 0 0 1-12.7488 26.368c-13.9264 20.3264-43.2128 52.992-87.9104 52.992H302.8992a24.27904 24.27904 0 0 1-24.3712-24.2688z"
          fill="#fe2b54" p-id="11110"></path>
</svg>