<?xml version="1.0" standalone="no"?><!DOCTYPE svg PUBLIC "-//W3C//DTD SVG 1.1//EN"
        "http://www.w3.org/Graphics/SVG/1.1/DTD/svg11.dtd">
<svg t="1652702397581" class="icon" viewBox="0 0 1024 1024" version="1.1" xmlns="http://www.w3.org/2000/svg" p-id="1027"
     width="200" height="200">
    <defs>
        <style type="text/css"></style>
    </defs>
    <path d="M890.026667 282.965333l-55.637334-18.773333-15.189333-56.32a29.866667 29.866667 0 0 0-52.736-9.557333l-34.133333 47.104-58.538667-2.218667A29.866667 29.866667 0 0 0 646.656 290.133333l34.133333 47.957334-20.309333 55.296a29.525333 29.525333 0 0 0 6.485333 30.72 29.184 29.184 0 0 0 30.549334 7.850666l55.978666-17.066666 46.250667 36.010666a30.037333 30.037333 0 0 0 12.970667 5.973334 28.330667 28.330667 0 0 0 18.261333-2.56 29.013333 29.013333 0 0 0 17.066667-26.453334v-58.709333l48.64-32.768a29.866667 29.866667 0 0 0-7.168-53.077333zM827.562667 341.333333a30.378667 30.378667 0 0 0-13.141334 24.405334v52.394666l-41.130666-32.256a29.354667 29.354667 0 0 0-13.141334-5.802666 28.672 28.672 0 0 0-14.165333 0.853333l-49.834667 15.530667 17.92-48.981334a30.549333 30.549333 0 0 0-3.754666-27.648l-30.378667-42.496 52.224 1.877334a29.525333 29.525333 0 0 0 25.088-12.117334l31.232-41.813333 13.653333 50.517333a30.378667 30.378667 0 0 0 19.114667 20.138667l49.493333 17.066667zM655.018667 168.277333a17.066667 17.066667 0 0 0 15.018666 8.704 17.066667 17.066667 0 0 0 8.192-2.048 17.066667 17.066667 0 0 0 6.656-23.210666L667.136 119.466667a17.066667 17.066667 0 0 0-29.866667 17.066666zM725.333333 153.6h1.024a17.066667 17.066667 0 0 0 17.066667-16.213333v-17.066667a17.066667 17.066667 0 0 0-34.133333-1.706667v17.066667A17.066667 17.066667 0 0 0 725.333333 153.6zM597.333333 202.410667l14.848 8.192a17.066667 17.066667 0 0 0 8.192 2.048 17.066667 17.066667 0 0 0 8.192-31.914667l-14.165333-8.192a17.066667 17.066667 0 1 0-17.066667 29.866667zM256 820.736a20.309333 20.309333 0 1 0 20.309333 20.309333A20.309333 20.309333 0 0 0 256 820.736z"
          fill="#3D3D63" p-id="1028"></path>
    <path d="M802.133333 676.693333a62.293333 62.293333 0 0 0-26.112-51.2 61.952 61.952 0 0 0-47.445333-102.4h-121.685333a60.416 60.416 0 0 0-29.184 7.68 32.085333 32.085333 0 0 1-2.901334-18.773333 291.669333 291.669333 0 0 0 4.266667-81.749333 103.594667 103.594667 0 0 0-112.128-94.208 35.84 35.84 0 0 0-32.597333 38.912l1.024 11.434666a227.498667 227.498667 0 0 1-33.109334 139.093334l-69.12 90.453333a47.445333 47.445333 0 0 0-44.544-31.573333h-65.877333A47.616 47.616 0 0 0 175.104 631.466667v4.266666h-44.373333a17.066667 17.066667 0 0 0 0 34.133334h44.373333v164.181333h-44.373333a17.066667 17.066667 0 1 0 0 34.133333h44.373333v4.266667a47.616 47.616 0 0 0 47.616 47.616h65.877333a47.786667 47.786667 0 0 0 45.226667-34.133333 263.68 263.68 0 0 0 128.341333 34.133333h250.709334a62.293333 62.293333 0 0 0 62.293333-62.293333 61.269333 61.269333 0 0 0-13.482667-38.570667 62.464 62.464 0 0 0 28.330667-51.2 61.610667 61.610667 0 0 0-14.677333-39.765333A62.805333 62.805333 0 0 0 802.133333 676.693333z m-499.370666 85.333334v109.738666a13.653333 13.653333 0 0 1-13.482667 13.482667h-66.56a13.482667 13.482667 0 0 1-13.482667-13.482667V631.466667a13.482667 13.482667 0 0 1 13.482667-13.482667h65.877333a13.653333 13.653333 0 0 1 13.482667 13.482667z m304.810666-204.8h121.002667a28.16 28.16 0 0 1 0 56.32h-121.685333a28.16 28.16 0 0 1 0-56.32zM566.442667 885.76h-104.277334a230.741333 230.741333 0 0 1-115.882666-31.402667 20.309333 20.309333 0 0 1-10.069334-17.066666v-163.328a20.309333 20.309333 0 0 1 5.973334-14.506667l1.536-1.706667 86.528-113.493333a261.632 261.632 0 0 0 39.082666-161.450667l-1.024-11.605333c0-0.853333 0-1.706667 1.536-1.877333a68.266667 68.266667 0 0 1 51.2 16.042666 68.266667 68.266667 0 0 1 24.576 47.104 257.365333 257.365333 0 0 1-3.754666 72.362667 64.341333 64.341333 0 0 0 11.605333 51.2 59.904 59.904 0 0 0-1.536 58.368 62.122667 62.122667 0 0 0-7.68 122.88 60.586667 60.586667 0 0 0-7.68 30.72 62.122667 62.122667 0 0 0 34.133333 55.125333 62.805333 62.805333 0 0 0-11.093333 35.328 60.416 60.416 0 0 0 6.826667 27.306667z m146.432 0h-91.306667a28.16 28.16 0 0 1 0-56.32h91.306667a28.16 28.16 0 0 1 0 56.32z m14.848-90.453333h-128.853334a28.16 28.16 0 0 1 0-56.32h128.853334a28.16 28.16 0 0 1 0 56.32z m11.434666-90.453334H556.885333a28.16 28.16 0 0 1 0-56.32h182.272a28.16 28.16 0 1 1 0 56.32z"
          fill="#3D3D63" p-id="1029"></path>
</svg>