<svg xml:space="preserve" style="enable-background:new 0 0 1024 1024;" viewBox="0 0 1024 1024" y="0px" x="0px" xmlns:xlink="http://www.w3.org/1999/xlink" xmlns="http://www.w3.org/2000/svg" version="1.1">
<style type="text/css">
	.st0{fill:url(#SVGID_1_);}
	.st1{fill:url(#SVGID_2_);}
	.st2{fill:url(#SVGID_3_);}
	.st3{fill:url(#SVGID_4_);}
	.st4{fill:url(#SVGID_5_);}
	.st5{fill:url(#SVGID_6_);}
	.st6{fill:url(#SVGID_7_);}
	.st7{fill:url(#SVGID_8_);}
	.st8{fill:url(#SVGID_9_);}
	.st9{fill:#F3F3F3;}
	.st10{fill:url(#SVGID_10_);}
	.st11{fill:url(#SVGID_11_);}
	.st12{fill:url(#SVGID_12_);}
	.st13{fill:url(#SVGID_13_);}
	.st14{fill:url(#SVGID_14_);}
	.st15{fill:url(#SVGID_15_);}
	.st16{fill:url(#SVGID_16_);}
	.st17{fill:url(#SVGID_17_);}
	.st18{fill:url(#SVGID_18_);}
	.st19{fill:url(#SVGID_19_);}
	.st20{fill:url(#SVGID_20_);}
	.st21{fill:url(#SVGID_21_);}
	.st22{fill:url(#SVGID_22_);}
	.st23{fill:url(#SVGID_23_);}
	.st24{fill:url(#SVGID_24_);}
	.st25{fill:url(#SVGID_25_);}
	.st26{fill:url(#SVGID_26_);}
	.st27{fill:url(#SVGID_27_);}
	.st28{fill:url(#SVGID_28_);}
	.st29{fill:url(#SVGID_29_);}
	.st30{fill:url(#SVGID_30_);}
	.st31{fill:url(#SVGID_31_);}
	.st32{fill:url(#SVGID_32_);}
	.st33{fill:url(#SVGID_33_);}
	.st34{fill:url(#SVGID_34_);}
	.st35{fill:url(#SVGID_35_);}
	.st36{fill:url(#SVGID_36_);}
	.st37{fill:url(#SVGID_37_);}
	.st38{fill:url(#SVGID_38_);}
	.st39{fill:url(#SVGID_39_);}
	.st40{fill:url(#SVGID_40_);}
	.st41{fill:url(#SVGID_41_);}
	.st42{fill:url(#SVGID_42_);}
	.st43{fill:url(#SVGID_43_);}
	.st44{fill:url(#SVGID_44_);}
	.st45{fill:url(#SVGID_45_);}
	.st46{fill:url(#SVGID_46_);}
	.st47{fill:url(#SVGID_47_);}
	.st48{fill:url(#SVGID_48_);}
	.st49{fill:url(#SVGID_49_);}
	.st50{fill:url(#SVGID_50_);}
	.st51{fill:url(#SVGID_51_);}
	.st52{fill:url(#SVGID_52_);}
	.st53{fill:url(#SVGID_53_);}
	.st54{fill:url(#SVGID_54_);}
	.st55{fill:url(#SVGID_55_);}
	.st56{fill:url(#SVGID_56_);}
	.st57{fill:url(#SVGID_57_);}
	.st58{fill:url(#SVGID_58_);}
	.st59{fill:url(#SVGID_59_);}
	.st60{fill:url(#SVGID_60_);}
	.st61{fill:url(#SVGID_61_);}
	.st62{fill:url(#SVGID_62_);}
	.st63{fill:url(#SVGID_63_);}
	.st64{fill:url(#SVGID_64_);}
	.st65{fill:url(#SVGID_65_);}
	.st66{fill:url(#SVGID_66_);}
	.st67{fill:url(#SVGID_67_);}
	.st68{fill:url(#SVGID_68_);}
	.st69{fill:url(#SVGID_69_);}
	.st70{fill:url(#SVGID_70_);}
	.st71{fill:url(#SVGID_71_);}
	.st72{fill:url(#SVGID_72_);}
	.st73{fill:url(#SVGID_73_);}
	.st74{fill:url(#SVGID_74_);}
	.st75{fill:url(#SVGID_75_);}
	.st76{fill:url(#SVGID_76_);}
	.st77{fill:url(#SVGID_77_);}
	.st78{fill:url(#SVGID_78_);}
	.st79{fill:url(#SVGID_79_);}
	.st80{fill:url(#SVGID_80_);}
	.st81{fill:url(#SVGID_81_);}
	.st82{fill:url(#SVGID_82_);}
	.st83{fill:url(#SVGID_83_);}
	.st84{fill:url(#SVGID_84_);}
	.st85{fill:url(#SVGID_85_);}
	.st86{fill:url(#SVGID_86_);}
	.st87{fill:url(#SVGID_87_);}
	.st88{fill:url(#SVGID_88_);}
	.st89{fill:url(#SVGID_89_);}
	.st90{fill:url(#SVGID_90_);}
	.st91{fill:url(#SVGID_91_);}
	.st92{fill:url(#SVGID_92_);}
	.st93{fill:url(#SVGID_93_);}
	.st94{fill:url(#SVGID_94_);}
	.st95{fill:url(#SVGID_95_);}
	.st96{fill:url(#SVGID_96_);}
	.st97{fill:url(#SVGID_97_);}
	.st98{fill:url(#SVGID_98_);}
	.st99{fill:url(#SVGID_99_);}
	.st100{fill:url(#SVGID_100_);}
	.st101{fill:url(#SVGID_101_);}
	.st102{fill:url(#SVGID_102_);}
	.st103{fill:url(#SVGID_103_);}
	.st104{fill:url(#SVGID_104_);}
	.st105{fill:url(#SVGID_105_);}
	.st106{fill:url(#SVGID_106_);}
	.st107{fill:url(#SVGID_107_);}
	.st108{fill:url(#SVGID_108_);}
	.st109{fill:url(#SVGID_109_);}
	.st110{fill:url(#SVGID_110_);}
	.st111{fill:url(#SVGID_111_);}
	.st112{fill:url(#SVGID_112_);}
	.st113{fill:url(#SVGID_113_);}
	.st114{fill:url(#SVGID_114_);}
	.st115{fill:url(#SVGID_115_);}
	.st116{fill:url(#SVGID_116_);}
	.st117{fill:url(#SVGID_117_);}
	.st118{fill:url(#SVGID_118_);}
	.st119{fill:url(#SVGID_119_);}
	.st120{fill:url(#SVGID_120_);}
	.st121{fill:url(#SVGID_121_);}
	.st122{fill:url(#SVGID_122_);}
	.st123{fill:url(#SVGID_123_);}
	.st124{fill:url(#SVGID_124_);}
	.st125{fill:url(#SVGID_125_);}
	.st126{fill:url(#SVGID_126_);}
	.st127{fill:url(#SVGID_127_);}
	.st128{fill:url(#SVGID_128_);}
	.st129{fill:url(#SVGID_129_);}
	.st130{fill:url(#SVGID_130_);}
	.st131{fill:url(#SVGID_131_);}
	.st132{fill:url(#SVGID_132_);}
	.st133{fill:url(#SVGID_133_);}
	.st134{fill:url(#SVGID_134_);}
	.st135{fill:url(#SVGID_135_);}
	.st136{fill:url(#SVGID_136_);}
	.st137{fill:url(#SVGID_137_);}
	.st138{fill:url(#SVGID_138_);}
	.st139{fill:url(#SVGID_139_);}
	.st140{fill:url(#SVGID_140_);}
	.st141{fill:url(#SVGID_141_);}
	.st142{fill:url(#SVGID_142_);}
	.st143{fill:url(#SVGID_143_);}
	.st144{fill:url(#SVGID_144_);}
	.st145{fill:url(#SVGID_145_);}
	.st146{fill:url(#SVGID_146_);}
	.st147{fill:url(#SVGID_147_);}
	.st148{fill:url(#SVGID_148_);}
	.st149{fill:url(#SVGID_149_);}
	.st150{fill:url(#SVGID_150_);}
	.st151{fill:url(#SVGID_151_);}
	.st152{fill:url(#SVGID_152_);}
	.st153{fill:url(#SVGID_153_);}
	.st154{fill:url(#SVGID_154_);}
	.st155{fill:url(#SVGID_155_);}
	.st156{fill:url(#SVGID_156_);}
	.st157{fill:url(#SVGID_157_);}
	.st158{fill:url(#SVGID_158_);}
	.st159{fill:url(#SVGID_159_);}
	.st160{fill:url(#SVGID_160_);}
	.st161{fill:url(#SVGID_161_);}
	.st162{fill:url(#SVGID_162_);}
	.st163{fill:url(#SVGID_163_);}
	.st164{fill:url(#SVGID_164_);}
	.st165{fill:url(#SVGID_165_);}
	.st166{fill:url(#SVGID_166_);}
	.st167{fill:url(#SVGID_167_);}
	.st168{fill:url(#SVGID_168_);}
	.st169{fill:url(#SVGID_169_);}
	.st170{fill:url(#SVGID_170_);}
	.st171{fill:url(#SVGID_171_);}
	.st172{fill:url(#SVGID_172_);}
	.st173{fill:url(#SVGID_173_);}
	.st174{fill:url(#SVGID_174_);}
	.st175{fill:url(#SVGID_175_);}
	.st176{fill:url(#SVGID_176_);}
	.st177{fill:url(#SVGID_177_);}
	.st178{fill:url(#SVGID_178_);}
	.st179{fill:url(#SVGID_179_);}
	.st180{fill:url(#SVGID_180_);}
	.st181{fill:url(#SVGID_181_);}
	.st182{fill:url(#SVGID_182_);}
	.st183{fill:url(#SVGID_183_);}
	.st184{fill:url(#SVGID_184_);}
	.st185{fill:url(#SVGID_185_);}
	.st186{fill:url(#SVGID_186_);}
	.st187{fill:url(#SVGID_187_);}
	.st188{fill:url(#SVGID_188_);}
	.st189{fill:url(#SVGID_189_);}
	.st190{fill:#FFFFFF;}
	.st191{fill:url(#SVGID_190_);}
	.st192{fill:url(#SVGID_191_);}
	.st193{fill:url(#SVGID_192_);}
	.st194{fill:url(#SVGID_193_);}
	.st195{fill:url(#SVGID_194_);}
	.st196{fill:url(#SVGID_195_);}
	.st197{fill:url(#SVGID_196_);}
	.st198{fill:url(#SVGID_197_);}
	.st199{fill:url(#SVGID_198_);}
	.st200{fill:url(#SVGID_199_);}
	.st201{fill:url(#SVGID_200_);}
	.st202{fill:url(#SVGID_201_);}
	.st203{fill:url(#SVGID_202_);}
	.st204{fill:url(#SVGID_203_);}
	.st205{fill:url(#SVGID_204_);}
	.st206{fill:url(#SVGID_205_);}
	.st207{fill:url(#SVGID_206_);}
	.st208{fill:url(#SVGID_207_);}
	.st209{fill:url(#SVGID_208_);}
	.st210{fill:url(#SVGID_209_);}
	.st211{fill:url(#SVGID_210_);}
	.st212{fill:url(#SVGID_211_);}
	.st213{fill:url(#SVGID_212_);}
	.st214{fill:url(#SVGID_213_);}
	.st215{fill:url(#SVGID_214_);}
	.st216{fill:url(#SVGID_215_);}
	.st217{fill:url(#SVGID_216_);}
	.st218{fill:url(#SVGID_217_);}
	.st219{fill:url(#SVGID_218_);}
	.st220{fill:url(#SVGID_219_);}
	.st221{fill:url(#SVGID_220_);}
	.st222{fill:url(#SVGID_221_);}
</style>
<g id="图层_2">
	<g>
		<linearGradient y2="148.5008" x2="568.2056" y1="34.872" x1="568.2056" gradientUnits="userSpaceOnUse" id="SVGID_1_">
			<stop style="stop-color:#F9F9F9" offset="4.528621e-07"></stop>
			<stop style="stop-color:#FCFBFE" offset="1"></stop>
		</linearGradient>
		<path d="M635.28,74.13c-0.55,0-1.08,0-1.66,0c-7.83-22.55-36.28-39.26-70.18-39.26c-36.31,0-66.36,19.17-71.53,44.16
			c-20.51,5.31-35,18.21-35,33.44c0,19.87,24.97,36.03,55.76,36.03c15.45,0,29.44-4.06,39.54-10.61c3.73,0.41,7.48,0.61,11.23,0.61
			c13.67,0.14,27.2-2.7,39.65-8.34c9.25,7.04,20.6,10.75,32.22,10.55c24.4,0,44.19-14.9,44.19-33.26S659.68,74.13,635.28,74.13z" class="st0"></path>
		<linearGradient y2="157.0905" x2="178.7056" y1="92.979" x1="178.7056" gradientUnits="userSpaceOnUse" id="SVGID_2_">
			<stop style="stop-color:#F9F9F9" offset="4.528621e-07"></stop>
			<stop style="stop-color:#FCFBFE" offset="1"></stop>
		</linearGradient>
		<path d="M216.55,115.13c-0.31,0-0.61,0-0.93,0c-4.42-12.72-20.47-22.15-39.6-22.15c-20.49,0-37.44,10.82-40.36,24.91
			c-11.57,3-19.75,10.28-19.75,18.87c0,11.21,14.09,20.33,31.46,20.33c8.72,0,16.61-2.29,22.31-5.99c2.1,0.23,4.22,0.34,6.33,0.35
			c7.71,0.08,15.35-1.53,22.37-4.71c5.22,3.97,11.62,6.07,18.18,5.95c13.77,0,24.93-8.41,24.93-18.77S230.32,115.13,216.55,115.13z" class="st1"></path>
		<linearGradient y2="983.4351" x2="512" y1="671.0002" x1="512" gradientUnits="userSpaceOnUse" id="SVGID_3_">
			<stop style="stop-color:#F9F9F9" offset="4.528621e-07"></stop>
			<stop style="stop-color:#FFFFFF;stop-opacity:0" offset="1"></stop>
		</linearGradient>
		<rect height="312" width="991" class="st2" y="677.13" x="16.5"></rect>
		<linearGradient y2="600.128" x2="223.5" y1="188.128" x1="223.5" gradientUnits="userSpaceOnUse" id="SVGID_4_">
			<stop style="stop-color:#F9F9F9" offset="4.528621e-07"></stop>
			<stop style="stop-color:#FFFFFF;stop-opacity:0.1" offset="1"></stop>
		</linearGradient>
		<polygon points="209.5,188.13 209.5,297.13 135.5,297.13 135.5,600.13 209.5,600.13 258.5,600.13 311.5,600.13 
			311.5,188.13" class="st3"></polygon>
		
			<linearGradient gradientTransform="matrix(-1 0 0 1 12570 0)" y2="475.128" x2="11729.5" y1="93.128" x1="11729.5" gradientUnits="userSpaceOnUse" id="SVGID_5_">
			<stop style="stop-color:#F9F9F9" offset="4.528621e-07"></stop>
			<stop style="stop-color:#FFFFFF;stop-opacity:0" offset="1"></stop>
		</linearGradient>
		<polygon points="870.5,93.13 870.5,172.13 928.5,172.13 928.5,475.13 854.5,475.13 805.5,475.13 752.5,475.13 
			752.5,93.13" class="st4"></polygon>
		<g>
			<linearGradient y2="676.1863" x2="167.7266" y1="623.0598" x1="167.7266" gradientUnits="userSpaceOnUse" id="SVGID_6_">
				<stop style="stop-color:#EDEDEE" offset="4.528621e-07"></stop>
				<stop style="stop-color:#FBFBFB" offset="1"></stop>
			</linearGradient>
			<rect height="53.05" width="16" class="st5" y="624.1" x="159.73"></rect>
			<linearGradient y2="624.4843" x2="167.7266" y1="534.2722" x1="167.7266" gradientUnits="userSpaceOnUse" id="SVGID_7_">
				<stop style="stop-color:#EDEDEE" offset="4.528621e-07"></stop>
				<stop style="stop-color:#ECECEC" offset="1"></stop>
			</linearGradient>
			<path d="M193.53,626.13l-51.62-0.16c-0.67,0-1.14-0.64-0.96-1.28l25.95-87.93c0.28-0.96,1.64-0.96,1.92,0
				l25.67,88.09C194.68,625.49,194.2,626.13,193.53,626.13z" class="st6"></path>
		</g>
		<g>
			<linearGradient y2="676.1863" x2="880.7266" y1="623.0598" x1="880.7266" gradientUnits="userSpaceOnUse" id="SVGID_8_">
				<stop style="stop-color:#EDEDEE" offset="4.528621e-07"></stop>
				<stop style="stop-color:#FBFBFB" offset="1"></stop>
			</linearGradient>
			<rect height="53.05" width="16" class="st7" y="624.1" x="872.73"></rect>
			<linearGradient y2="624.4843" x2="880.7266" y1="534.2722" x1="880.7266" gradientUnits="userSpaceOnUse" id="SVGID_9_">
				<stop style="stop-color:#EDEDEE" offset="4.528621e-07"></stop>
				<stop style="stop-color:#ECECEC" offset="1"></stop>
			</linearGradient>
			<path d="M906.53,626.13l-51.62-0.16c-0.67,0-1.14-0.64-0.96-1.28l25.95-87.93c0.28-0.96,1.64-0.96,1.92,0
				l25.67,88.09C907.68,625.49,907.2,626.13,906.53,626.13z" class="st8"></path>
		</g>
		<ellipse ry="19.2" rx="179.56" cy="712.27" cx="511.74" class="st9"></ellipse>
	</g>
	<g>
		<g>
			
				<linearGradient gradientTransform="matrix(1 0 0 -1 0 2070)" y2="1390.1243" x2="512" y1="1758.1243" x1="512" gradientUnits="userSpaceOnUse" id="SVGID_10_">
				<stop style="stop-color:#F0F0F2" offset="0"></stop>
				<stop style="stop-color:#F0F1F2;stop-opacity:0" offset="0"></stop>
				<stop style="stop-color:#F9F9F9" offset="0"></stop>
				<stop style="stop-color:#DEE0E2" offset="1"></stop>
				<stop style="stop-color:#FCFBFD" offset="1"></stop>
			</linearGradient>
			<path d="M641.33,311.88h-40.67l-23.7,39.41H447.04l-23.7-39.41h-40.67c-14.77-0.02-26.76,11.95-26.78,26.72
				c0,0.02,0,0.04,0,0.06v314.47c0,14.77,11.98,26.75,26.75,26.75c0.01,0,0.02,0,0.03,0h258.66c14.77,0.02,26.76-11.95,26.78-26.72
				c0-0.01,0-0.02,0-0.03V338.65c0.02-14.77-11.95-26.76-26.72-26.78C641.37,311.88,641.35,311.88,641.33,311.88z" class="st10"></path>
			
				<linearGradient gradientTransform="matrix(1 0 0 -1 0 2070)" y2="1739.9347" x2="512.0001" y1="1758.2048" x1="512.0001" gradientUnits="userSpaceOnUse" id="SVGID_11_">
				<stop style="stop-color:#F0F0F2" offset="0"></stop>
				<stop style="stop-color:#F0F1F2;stop-opacity:0" offset="0"></stop>
				<stop style="stop-color:#F9F9F9" offset="0"></stop>
				<stop style="stop-color:#DEE0E2" offset="1"></stop>
				<stop style="stop-color:#FCFBFD" offset="1"></stop>
			</linearGradient>
			<path d="M466.66,329.98h90.69c5-0.28,8.83-4.56,8.55-9.56c-0.26-4.61-3.94-8.29-8.55-8.55h-90.69
				c-5,0.28-8.83,4.56-8.55,9.56C458.37,326.05,462.05,329.73,466.66,329.98z" class="st11"></path>
			<path d="M424.99,441.72h174.05c4.91,0,8.9,3.98,8.9,8.9v0c0,4.91-3.98,8.9-8.9,8.9H424.99
				c-4.91,0-8.9-3.98-8.9-8.9v0C416.09,445.7,420.08,441.72,424.99,441.72z" class="st190"></path>
			<path d="M424.99,506.71h174.05c4.91,0,8.9,3.98,8.9,8.9v0c0,4.91-3.98,8.9-8.9,8.9H424.99
				c-4.91,0-8.9-3.98-8.9-8.9v0C416.09,510.7,420.08,506.71,424.99,506.71z" class="st190"></path>
			<path d="M424.99,571.71h174.05c4.91,0,8.9,3.98,8.9,8.9v0c0,4.91-3.98,8.9-8.9,8.9H424.99
				c-4.91,0-8.9-3.98-8.9-8.9v0C416.09,575.69,420.08,571.71,424.99,571.71z" class="st190"></path>
		</g>
	</g>
</g>
<g id="图层_1">
</g>
</svg>
