<?xml version="1.0" standalone="no"?><!DOCTYPE svg PUBLIC "-//W3C//DTD SVG 1.1//EN"
        "http://www.w3.org/Graphics/SVG/1.1/DTD/svg11.dtd">
<svg t="1650805441575" class="icon" viewBox="0 0 1024 1024" version="1.1" xmlns="http://www.w3.org/2000/svg" p-id="2585"
     width="200" height="200">
    <defs>
        <style type="text/css"></style>
    </defs>
    <path d="M864.256 558.08c25.6-51.712 40.448-109.056 40.448-170.496 0-214.016-176.128-387.072-393.216-387.072-217.088 0-393.216 173.568-393.216 387.072 0 61.44 14.848 118.784 40.448 170.496L0 829.952c0 0 101.376 20.48 203.776 41.472 68.608 76.288 136.704 152.064 136.704 152.064l146.432-250.368c8.192 0.512 16.384 1.024 25.088 1.024s16.896-0.512 25.088-1.024l146.432 250.368c0 0 68.096-75.776 136.704-152.064 102.4-20.992 203.776-41.472 203.776-41.472L864.256 558.08zM329.216 210.944l104.96 0 0-35.328 30.208 0 0 35.328 110.08 0 0-35.84 30.208 0 0 35.84 102.912 0 0 27.648L604.16 238.592l0 29.184-30.208 0 0-29.184L463.872 238.592l0 24.576-30.208 0 0-24.576L329.216 238.592 329.216 210.944zM332.8 907.776c0 0-49.152-46.592-95.232-91.648-65.536-18.432-131.584-37.376-131.584-37.376l92.672-158.208c53.248 69.632 130.048 120.832 219.136 142.336L332.8 907.776zM423.936 562.176 394.24 562.176 394.24 405.504c-18.432 22.016-37.376 41.472-57.344 58.368-7.168-10.752-13.312-19.456-18.432-26.624C358.4 404.48 393.216 364.032 422.4 314.88L329.728 314.88l0-27.648 108.544 0c3.072-6.144 6.144-11.776 9.216-18.432l31.232 0c-3.072 6.144-6.144 12.288-9.216 18.432l231.936 0 0 27.648L455.168 314.88c-9.728 17.92-20.48 34.304-30.72 50.176L424.448 562.176zM603.136 514.56c0 31.232-14.336 46.592-43.008 46.592-16.896 0-39.424 0-69.12-0.512-1.536-10.24-3.072-20.992-5.12-32.256 24.576 2.048 46.592 3.072 66.56 3.072 13.824 0 20.48-7.168 20.48-22.016l0-48.128L453.632 461.312l0-27.648 119.296 0L572.928 414.72l57.856-37.376L475.136 377.344l0-27.136 205.312 0 0 27.136-76.8 48.64 0 7.68 104.448 0 0 27.648-104.448 0L603.648 514.56zM786.432 816.128c-46.08 45.056-95.232 91.648-95.232 91.648L606.208 762.88c88.576-21.504 165.376-72.704 219.136-142.336l92.672 158.208C918.016 778.752 851.968 797.696 786.432 816.128z"
          p-id="2586"></path>
</svg>