<?xml version="1.0" standalone="no"?><!DOCTYPE svg PUBLIC "-//W3C//DTD SVG 1.1//EN"
        "http://www.w3.org/Graphics/SVG/1.1/DTD/svg11.dtd">
<svg t="1650806082189" class="icon" viewBox="0 0 1024 1024" version="1.1" xmlns="http://www.w3.org/2000/svg" p-id="3688"
     width="200" height="200">
    <defs>
        <style type="text/css"></style>
    </defs>
    <path d="M725.418667 745.941333l-0.042667 203.178667a32 32 0 0 1-45.610667 29.013333l-167.722666-78.634666-167.68 78.592a32 32 0 0 1-45.610667-28.970667v-203.050667A382.208 382.208 0 0 0 512 810.666667a382.208 382.208 0 0 0 213.418667-64.725334zM512 85.333333a341.333333 341.333333 0 1 1 0 682.666667 341.333333 341.333333 0 0 1 0-682.666667z m-8.192 195.669334l-1.578667 2.389333-38.912 79.061333-87.210666 12.586667a10.88 10.88 0 0 0-7.850667 16.341333l1.792 2.261334 63.146667 61.44-14.933334 86.826666a10.88 10.88 0 0 0 13.098667 12.501334l2.688-1.024L512 512.341333l77.952 41.045334a10.88 10.88 0 0 0 15.914667-8.576l-0.128-2.901334-14.890667-86.826666 63.104-61.44a10.88 10.88 0 0 0-3.285333-17.834667l-2.773334-0.768-87.210666-12.586667-38.912-79.061333a10.922667 10.922667 0 0 0-15.914667-4.181333l-2.048 1.792z"
          p-id="3689"></path>
</svg>