<?xml version="1.0" standalone="no"?><!DOCTYPE svg PUBLIC "-//W3C//DTD SVG 1.1//EN"
        "http://www.w3.org/Graphics/SVG/1.1/DTD/svg11.dtd">
<svg t="1650807604352" class="icon" viewBox="0 0 1024 1024" version="1.1" xmlns="http://www.w3.org/2000/svg"
     p-id="27135" width="200" height="200">
    <defs>
        <style type="text/css"></style>
    </defs>
    <path d="M815.616 401.92c-3.584-4.096-7.68-6.656-12.288-8.704-16.896-10.752-40.448-10.24-53.76 11.264-6.144 9.728-12.8 18.432-19.968 26.624-19.968-143.36-114.688-264.192-227.328-353.28-8.192-6.656-17.408-10.24-27.136-10.752-0.512 0-1.024-0.512-1.536-0.512-18.432-5.12-44.032 6.144-47.104 26.624C402.432 242.688 237.056 312.32 168.96 438.272c-68.096 125.952-53.76 285.184 35.84 396.288 49.152 60.416 118.784 103.424 194.048 122.368 5.632 1.536 10.24 1.536 14.848 1.024 40.448 12.288 72.704-48.128 31.232-69.12-68.096-35.328-78.848-108.032-73.728-178.688 4.608-55.808 25.6-109.568 65.536-146.944 23.552 50.688 72.704 84.992 115.2 124.928 27.648 25.6 47.616 53.76 44.032 93.184-3.584 42.496-29.696 78.848-56.32 110.08-25.088 29.696 3.072 69.632 32.256 66.56 2.56 0.512 5.12 1.024 7.68 1.024h1.536c179.2-8.192 319.488-155.136 319.488-334.848 0-81.408-30.208-160.768-84.992-222.208z m-176.64 481.28c34.304-59.392 49.664-128 13.312-193.536-20.48-36.864-53.248-62.976-84.992-89.6-28.672-24.064-65.536-53.76-67.584-94.208-1.024-14.848-8.192-25.088-18.432-31.232-10.752-9.728-26.624-13.824-43.52-5.632-91.136 46.08-135.168 142.848-142.848 240.64-3.072 38.4-0.512 77.824 9.728 114.176-84.48-70.656-123.904-186.88-88.576-301.056 25.6-81.92 91.648-137.728 151.04-195.584 48.128-47.104 95.232-99.84 119.808-163.328 95.744 85.504 172.544 196.096 169.984 329.728v4.608c-3.072 26.624 26.112 56.832 57.856 39.936 29.184-15.36 54.784-35.84 75.776-60.928 28.16 43.52 43.52 94.208 43.52 146.432 0 123.904-81.92 227.328-195.072 259.584z"
          fill="#3E3A39" p-id="27136"></path>
    <path d="M524.288 803.328c-23.552-26.624-31.744-62.464-34.304-97.28-3.584-49.152-80.384-49.152-76.8 0 4.096 56.32 19.456 108.032 56.832 151.552 32.256 37.376 86.528-16.896 54.272-54.272z"
          fill="#FA7268" p-id="27137"></path>
</svg>