<?xml version="1.0" standalone="no"?><!DOCTYPE svg PUBLIC "-//W3C//DTD SVG 1.1//EN"
        "http://www.w3.org/Graphics/SVG/1.1/DTD/svg11.dtd">
<svg t="1650801525147" class="icon" viewBox="0 0 1024 1024" version="1.1" xmlns="http://www.w3.org/2000/svg" p-id="5026"
     width="200" height="200">
    <defs>
        <style type="text/css"></style>
    </defs>
    <path d="M458.099087 0 0.072616 458.026471l0 480.241194 85.732335 85.732335 0-171.464669 766.802996-766.802996 171.319437 0-85.659138-85.659138 0.073197-0.072035L458.099087 0.001162zM230.136752 484.092753l-0.613461 1.436056c-1.597555 3.74583-4.678802 8.892861-9.419182 15.73388-2.453844 4.947191-4.426679 8.7302-5.9034 11.332762l54.672387 54.672387c7.417301 6.874713 11.276993 13.876069 11.407121 20.747297 0.124319 6.656284-3.20789 13.155717-9.94318 19.363524-2.89535 3.903843-8.121387 9.657363-15.255195 16.791171l-1.634734 1.634734-1.634734-1.634734c-2.425959-2.425959-6.689978-5.681485-12.672384-9.671305-1.997234-0.972475-3.74583-2.150599-4.949515-3.353122l-1.634734-1.634734 8.530361-8.530361c4.274475-3.246231 7.028079-5.495588 8.428117-6.895627 2.694349-2.694349 4.059532-5.086614 3.94567-6.921188-0.073197-1.196714-0.793549-2.313259-2.201721-3.4147l-49.412656-49.387095c-5.033169 8.816178-9.912972 17.935601-14.522062 27.149134l-1.293148 2.58281-20.753106-16.979392 1.229246-1.755567c6.745747-9.637612 12.616615-19.342611 17.46621-28.869846l-42.389225-42.389225L118.598391 497.085811l-16.293896-16.293896 22.986197-22.986197-35.24496-35.24496 17.060722-17.060722 35.24496 35.24496 20.68688-20.68688 16.293896 16.293896-20.68688 20.68688 38.416832 38.416832c1.401201-2.334173 3.192786-5.318986 5.366622-8.954439 4.087416-7.155883 6.806164-12.342417 8.286371-15.810563l1.341946-3.146311 8.547789 8.547789c4.087416 3.053363 6.843343 5.310853 8.428117 6.895627L230.136752 484.092753zM424.512098 430.223211l-101.903073 101.903073 13.791254 13.791254-17.060722 17.060722-113.471693-113.471693c0.248638 1.235055 0.517027 2.573515 0.807491 4.009572 0.526322 5.717503 1.029406 9.757283 1.533652 12.261087l0.55653 2.769869-2.823315-0.001162c-6.196188 0-12.701431-0.260256-19.333316-0.772636l-1.941465-0.14988-0.182412-1.941465c-3.542505-37.889349-13.017456-74.509949-28.162274-108.845174l-0.905087-2.050679 22.006751-10.527595 14.203713 42.609978 39.12208-39.12208c-12.672384-3.829484-25.512076-6.759689-38.186785-8.713934l-2.504966-0.384575 5.701237-22.809595 2.007691 0.223077c13.730837 1.525519 27.482587 3.860854 40.871838 6.942101l2.315583 0.532131-4.904202 18.909238 47.273675-47.273675 15.528231 15.528231L252.88593 356.669471l25.846691 25.84553 43.673078-43.673078 15.528231 15.528231-43.673078 43.673078 25.846691 25.846691 43.673078-43.673078 15.528231 15.528231-43.673078 43.673078 25.846691 25.846691 49.036214-49.036214L424.512098 430.223211zM583.879503 203.430867l-46.738059 46.738059 22.117128 22.117128c7.535811 7.022269 11.454757 14.483721 11.588371 22.120613 0.141747 8.12952-4.013057 16.479793-12.355197 24.820771-5.602479 6.614457-15.43993 16.972421-29.114998 30.647488l-1.461617 1.461617-1.614983-1.289662c-5.055244-4.03978-10.942378-8.390938-17.496419-12.931479l-2.274918-1.578965 11.151512-11.151512c11.72547-10.678636 18.76052-17.228029 22.219371-20.68688 0.580929-0.511217 1.010816-0.910897 1.410496-1.311738 2.499156-2.499156 3.72724-4.934411 3.647072-7.236051-0.089463-2.535174-1.75092-5.224875-4.939058-7.993583l-19.938644-19.929349-57.464331 57.464331-15.528231-15.528231 57.464331-57.464331-7.681043-7.681043 8.594263-40.326927-71.964318 71.964318-16.293896-16.293896 100.57507-100.57507 14.728873 14.728873-9.601594 59.828712 45.441425-45.441425L583.879503 203.430867zM481.210765 99.229638 432.940215 147.499026l14.55808 14.55808-17.060722 17.060722-14.55808-14.55808-48.066063 48.066063 10.600792 10.600792 10.822707-8.852196 0.582091 4.05256c0.328806 2.295831 0.884174 4.606767 1.657971 6.90376l105.617533-105.617533 17.060722 17.060722-114.071211 114.071211c3.85853 13.72619 6.809649 27.554623 8.778999 41.141389l89.201642 89.201642-17.060722 17.060722-68.618167-68.618167c0.678525 14.67078 0.56931 30.73579-0.328806 47.848795l-0.184735 3.518106-3.152121-1.56967c-1.7637-0.879526-4.857728-1.575479-9.193782-2.071593-6.293784-1.246674-9.153117-1.510415-10.476473-1.518548l-2.493347-0.01278 0.203325-2.485214c2.909292-35.887468 0.431049-70.115802-7.365017-101.804315l-42.432213 42.432213-17.060722-17.060722 52.038455-52.038455c-0.752884-2.904645-1.647515-5.978921-2.66995-9.179839l-7.023431 7.023431-12.258763-12.258763-49.036214 49.036214-16.293896-16.293896 49.036214-49.036214-16.856235-16.856235 17.826386-17.826386 16.856235 16.856235 48.066063-48.066063-16.856235-16.856235 17.060722-17.060722 16.856235 16.856235 48.27055-48.27055L481.210765 99.229638z"
          p-id="5027"></path>
    <path d="M344.424906 482.325565l-35.806424 35.806424-25.845955-25.845955 35.806424-35.806424 25.845955 25.845955Z"
          p-id="5028"></path>
    <path d="M303.05018 440.950518l-35.806424 35.806424-25.845955-25.845955 35.806424-35.806424 25.845955 25.845955Z"
          p-id="5029"></path>
    <path d="M261.67557 399.577114l-35.806424 35.806424-25.845955-25.845955 35.806424-35.806424 25.845955 25.845955Z"
          p-id="5030"></path>
</svg>