<?xml version="1.0" standalone="no"?><!DOCTYPE svg PUBLIC "-//W3C//DTD SVG 1.1//EN"
        "http://www.w3.org/Graphics/SVG/1.1/DTD/svg11.dtd">
<svg t="1650806219441" class="icon" viewBox="0 0 1024 1024" version="1.1" xmlns="http://www.w3.org/2000/svg"
     p-id="10272" width="200" height="200">
    <defs>
        <style type="text/css"></style>
    </defs>
    <path d="M990.392 809.216s-94.52 18.962-190.43 38.702c-63.92 71.18-127.58 142.198-127.58 142.198L535.336 756.285c-7.746 0.486-15.46 1.167-23.337 1.167-7.875 0-15.59-0.681-23.338-1.167l-137.043 233.83s-63.66-71.018-127.58-142.198c-95.912-19.74-190.43-38.702-190.43-38.702l149.037-254.317c-24.02-48.102-37.86-102.005-37.86-159.215 0.065-199.83 164.466-361.8 367.246-361.8s367.18 161.97 367.18 361.768c0 57.21-13.84 111.113-37.859 159.215l149.04 254.35z m-310.88 72.411s45.899-43.53 89.04-85.474c61.197-17.406 122.945-35.137 122.945-35.137L804.89 613.211c-49.95 65.183-121.649 113.026-204.594 133.22l79.217 135.196z m-546.945-120.61s61.748 17.73 122.945 35.137c43.142 41.944 89.04 85.474 89.04 85.474l79.219-135.164c-82.947-20.193-154.613-68.036-204.594-133.22l-86.61 147.773zM512.032 93.265c-164.888 0-298.53 133.933-298.53 299.113 0 165.211 133.642 299.112 298.53 299.112 164.855 0 298.529-133.932 298.529-299.112 0-165.212-133.642-299.113-298.53-299.113z"
          p-id="10273"></path>
    <path d="M327.26 311.95h109.326a594.455 594.455 0 0 0 9.394-18.387h31.579a1202.46 1202.46 0 0 1-9.194 18.388h233.842v27.981H453.575c-9.993 17.857-20.386 34.645-31.179 50.366v198.666h-30.38V430.87c-18.387 22.254-37.709 41.907-57.96 58.96-7.196-10.659-13.46-19.587-18.788-26.782 40.773-32.908 75.95-73.95 105.529-123.117H327.26v-27.98z m-0.799-76.747H431.99v-35.576h30.38v35.576h111.125v-35.976h30.38v35.976h103.93v27.981H603.873v29.18h-30.38v-29.18H462.37v24.784h-30.38v-24.784H326.46v-27.981zM451.976 459.85h120.32v-19.587l58.36-37.575H473.561v-27.182h206.66v27.182l-77.547 49.167v7.995h105.129v27.982h-105.13v53.164c0 31.445-14.524 47.169-43.57 47.169-16.789 0-39.974-0.135-69.553-0.4-1.334-10.128-3.067-20.92-5.197-32.379 24.516 2.13 46.9 3.198 67.155 3.198 13.856 0 20.786-7.464 20.786-22.385v-48.367h-120.32V459.85z"
          p-id="10274"></path>
</svg>