<?xml version="1.0" standalone="no"?><!DOCTYPE svg PUBLIC "-//W3C//DTD SVG 1.1//EN"
        "http://www.w3.org/Graphics/SVG/1.1/DTD/svg11.dtd">
<svg t="1650805462580" class="icon" viewBox="0 0 1024 1024" version="1.1" xmlns="http://www.w3.org/2000/svg" p-id="3421"
     width="200" height="200">
    <defs>
        <style type="text/css"></style>
    </defs>
    <path d="M639.722667 696.96c0.170667 2.325333 0.277333 4.672 0.277333 7.04v262.826667a10.666667 10.666667 0 0 1-17.344 8.32l-97.28-78.186667a21.333333 21.333333 0 0 0-26.752 0l-97.28 78.186667a10.666667 10.666667 0 0 1-17.344-8.32V704c0-2.368 0.106667-4.714667 0.277333-7.04h6.933334l65.792 65.813333a77.76 77.76 0 0 0 109.994666 0l65.792-65.813333h6.933334zM418.709333 141.226667l65.792-65.813334a38.890667 38.890667 0 0 1 54.997334 0l65.813333 65.813334c7.274667 7.274667 17.173333 11.370667 27.477333 11.370666h93.077334c21.482667 0 38.890667 17.408 38.890666 38.890667v93.077333c0 10.304 4.096 20.202667 11.370667 27.477334l65.813333 65.813333a38.890667 38.890667 0 0 1 0 54.997333l-65.813333 65.813334a38.890667 38.890667 0 0 0-11.370667 27.477333v93.077333a38.890667 38.890667 0 0 1-38.890666 38.890667h-93.077334c-10.304 0-20.202667 4.096-27.477333 11.370667l-65.813333 65.813333a38.890667 38.890667 0 0 1-54.997334 0l-65.813333-65.813333a38.890667 38.890667 0 0 0-27.477333-11.370667h-93.077334a38.890667 38.890667 0 0 1-38.890666-38.890667v-93.077333c0-10.304-4.096-20.202667-11.370667-27.477333l-65.813333-65.813334a38.890667 38.890667 0 0 1 0-54.997333l65.813333-65.813333c7.274667-7.274667 11.370667-17.173333 11.370667-27.477334V191.466667c0-21.482667 17.408-38.890667 38.890666-38.890667h93.077334c10.304 0 20.202667-4.096 27.477333-11.370667z"
          p-id="3422"></path>
</svg>