<?xml version="1.0" standalone="no"?><!DOCTYPE svg PUBLIC "-//W3C//DTD SVG 1.1//EN"
        "http://www.w3.org/Graphics/SVG/1.1/DTD/svg11.dtd">
<svg t="1650852976806" class="icon" viewBox="0 0 1024 1024" version="1.1" xmlns="http://www.w3.org/2000/svg" p-id="7862"
     width="200" height="200">
    <defs>
        <style type="text/css"></style>
    </defs>
    <path d="M969.984 405.408c-12.032-37.376-42.56-65.536-86.016-77.76l-190.016-32.576-83.264-177.536-2.304-4.288c-23.68-38.656-59.712-60.832-98.848-60.832-37.472 0-71.68 19.744-97.504 57.536L312.928 294.976l-171.936 30.72-4.48 1.12c-40.832 12.416-70.944 41.024-82.656 78.464-11.616 36.96-3.84 78.336 21.312 113.6l1.504 1.984 129.664 141.76-22.432 202.432-0.192 3.072c-1.344 36.864 8.96 68.576 29.824 91.52 18.752 20.672 44.992 32.128 73.984 32.128 18.464 0 36.768-4.544 56.512-14.144l168.032-97.088 166.848 96.576 3.328 1.728c18.272 8.704 36.64 13.152 54.624 13.152 28.608 0 54.784-11.52 73.664-32.384 20.8-22.976 31.104-55.232 29.728-94.016l-22.464-203.04 127.68-139.488 3.392-4.224c25.28-35.328 32.96-76.704 21.12-113.44z m-69.6 89.76l-1.664 1.888-134.656 142.848 23.68 207.552c0.832 23.904-5.472 43.712-18.112 57.248-10.432 11.168-24.96 17.312-40.96 17.312-11.232 0-23.04-2.816-36-8.864l-180.576-101.568-181.44 101.952c-11.776 5.504-23.52 8.32-34.88 8.32-16.576 0-30.848-5.952-41.28-17.12-12.704-13.6-18.944-33.376-18.016-58.304l23.584-206.496-135.872-144.128c-16.608-22.624-21.984-48.448-14.72-70.944 7.136-22.24 26.304-39.424 51.872-47.072l2.016-0.448 183.296-31.808 103.744-188.288c15.84-22.464 36.864-34.816 59.264-34.816 23.296 0 45.408 13.856 60.352 37.472l1.056 2.016 88.512 183.616 201.92 33.568c26.4 7.296 45.696 24.096 52.992 46.112 7.36 22.144 2.08 47.904-14.112 69.952z m-489.984-10.112c0-25.376-19.424-46.016-43.328-46.016-23.968 0-43.392 20.64-43.392 46.016 0 25.44 19.424 46.112 43.392 46.112 23.904 0.032 43.328-20.64 43.328-46.112z m265.12 160.128c-11.2-4.48-24.192 0.32-29.024 10.752-21.28 45.536-71.648 75.168-128.32 75.168-58.016 0-108.672-29.472-129.152-75.168a22.272 22.272 0 0 0-20.416-12.672 22.592 22.592 0 0 0-8.48 1.664c-11.296 4.384-16.672 16.352-11.936 26.784 27.328 60.992 94.016 100.32 169.92 100.32 74.272 0 140.672-39.136 168.896-99.872 4.928-10.368-0.256-22.464-11.488-26.976z m-6.976-206.144c-23.84 0-43.328 20.64-43.328 46.016 0 25.44 19.456 46.112 43.328 46.112 23.904 0 43.392-20.672 43.392-46.112 0-25.376-19.488-46.016-43.392-46.016z"
          p-id="7863"></path>
</svg>