<?xml version="1.0" standalone="no"?><!DOCTYPE svg PUBLIC "-//W3C//DTD SVG 1.1//EN"
        "http://www.w3.org/Graphics/SVG/1.1/DTD/svg11.dtd">
<svg t="1650853140029" class="icon" viewBox="0 0 1033 1024" version="1.1" xmlns="http://www.w3.org/2000/svg" p-id="8712"
     width="201.7578125" height="200">
    <defs>
        <style type="text/css"></style>
    </defs>
    <path d="M504.928883 16.816432c-11.757251 0.57424-33.762802 6.781901-49.019983 41.923717L378.49966 236.993492c-15.852379 36.49149-62.223314 73.766797-101.267447 81.395387l-190.727346 37.28369c-37.598055 7.347758-48.387062 27.509034-51.484605 38.863898-3.08916 11.354864-3.986148 34.202913 24.717472 59.578456l145.601297 128.713609c29.810186 26.347979 50.927131 81.969628 46.119443 121.466447l-23.485162 192.89856c-4.627453 38.025591 11.199777 54.523467 21.049881 60.970045 9.850104 6.446578 31.302372 14.364385 64.302314-5.105287l167.401462-98.698038c34.269977-20.211574 93.697538-23.112115 129.769875-6.337599l176.22464 81.961245c34.735238 16.15417 55.315667 6.195086 64.499316-1.186204 9.171075-7.377099 23.325884-25.33782 15.018265-62.730489l-42.145869-189.725569c-8.630367-38.838749 6.974712-96.258565 34.08555-125.377148l132.389583-142.252262c26.100679-28.041359 22.977986-50.696597 18.803219-61.699372-4.18315-11.006967-16.879305-30.015571-55.013876-33.674779l-193.447651-18.539153c-39.597416-3.797529-89.388642-36.390893-108.719994-71.163854l-94.397524-169.866084c-18.589451-33.490352-41.106368-37.522607-52.86362-36.952559z"
          fill="#FFD84A" p-id="8713"></path>
    <path d="M274.210117 982.126581c-15.869146 0-27.450352-5.398695-34.370574-9.929743-13.102734-8.575877-34.232254-29.98623-28.510811-77.023618l23.485162-192.89856c4.158001-34.152614-14.804496-84.094735-40.578235-106.879911l-145.605488-128.713608c-35.498097-31.382011-33.901122-61.426922-29.789228-76.541592 4.12866-15.127244 17.98587-41.839887 64.449018-50.918749l190.723154-37.283689c33.762802-6.593282 75.397303-40.062677 89.103618-71.620732L440.530163 52.058845C459.396255 8.605218 488.46454 0.834115 504.107343 0.067065c0.90118-0.041915 1.840083-0.062873 2.81671-0.062873 15.014073 0 43.487159 5.926828 65.526242 45.633224l94.397525 169.857701c16.715835 30.070061 61.418539 59.331156 95.663367 62.617318l193.447651 18.539152c47.142176 4.526856 63.518498 29.76827 69.084854 44.409297 5.557973 14.653601 10.063872 44.405105-22.206744 79.077469l-132.389584 142.252262c-23.439055 25.182733-37.455543 76.730211-29.98623 110.32116l42.145869 189.725569c10.273448 46.240997-8.672283 69.612987-20.878028 79.429558-7.70823 6.195086-20.949284 13.576377-40.293211 13.576377h-0.004192c-13.098542-0.004192-27.156945-3.449632-41.777013-10.252491l-176.22464-81.961244c-12.972796-6.031617-30.61496-9.351311-49.673863-9.351311-24.54562 0-48.663703 5.578931-64.511891 14.930242l-167.401462 98.698037c-16.447577 9.699208-32.471809 14.620069-47.632586 14.620069zM506.924053 33.536459c-0.414962 0-0.808966 0.008383-1.186204 0.025149-7.863317 0.385621-22.806133 5.038223-34.450213 31.855654L393.878396 243.670604c-18.061318 41.580012-68.946533 82.480995-113.431277 91.170044L89.723965 372.128529c-28.682663 5.60408-36.449575 19.209798-38.528576 26.821623-2.066426 7.590867-2.263428 23.23367 19.649909 42.602746l145.601297 128.713608c33.959804 30.019762 57.134792 91.056872 51.656458 136.057175l-23.485162 192.89856c-3.533463 29.030561 6.995669 40.603384 13.588951 44.916473 3.105926 2.032894 8.404025 4.451409 16.007467 4.451408 9.083053 0 19.377459-3.353227 30.594002-9.971658l167.401462-98.698038c21.095988-12.444663 50.818151-19.578653 81.546283-19.578652 24.189339 0 46.24938 4.313088 63.811905 12.482386l176.22464 81.961245c10.164469 4.72805 19.465481 7.121415 27.638971 7.125607h0.004192c9.586037 0 15.776932-3.36161 19.285245-6.17832 6.140596-4.941818 15.496099-17.487077 9.158501-46.023038l-42.15006-189.72976c-9.833337-44.262593 7.293268-107.26134 38.180678-140.437328l132.389583-142.252261c19.913975-21.397778 18.199638-36.95675 15.399694-44.329658-2.795753-7.360333-11.83689-20.140318-40.938707-22.931879l-193.447651-18.539153c-45.121857-4.329854-99.745921-40.083634-121.772429-79.710391L543.138902 61.917332C532.974433 43.612905 520.119 33.536459 506.924053 33.536459z"
          fill="#6E6E96" p-id="8714"></path>
    <path d="M397.131026 296.819248c-9.724358 22.391172-3.558612 54.83364 13.702123 72.094375l85.259982 85.259982c17.256543 17.264926 30.526938 11.434503 29.487437-12.95603l-15.190117-356.502493c-1.0395-24.38215-9.84172-26.02104-19.566078-3.629868L397.131026 296.819248z"
          fill="#FFFF66" p-id="8715"></path>
    <path d="M958.125861 386.966558c16.627813-17.868507 11.019541-27.027008-12.461429-20.345703l-375.511097 106.79608c-23.489353 6.677113-24.419874 20.211574-2.087384 30.074252l158.997438 70.229143c22.324107 9.86687 54.200719 3.315503 70.82434-14.565579l160.238132-172.188193z"
          fill="#8F0000" opacity=".05" p-id="8716"></path>
    <path d="M530.057126 529.864315c-1.433504-24.369575 9.233948-28.213212 23.690547-8.542345l257.867328 350.822965c14.456599 19.662483 8.177682 27.332989-13.945232 17.038584l-213.286178-99.184256c-22.135488-10.298598-41.408159-38.658513-42.837472-63.019705l-11.488993-197.115243z"
          fill="#8F0000" opacity=".12" p-id="8717"></path>
    <path d="M505.121694 523.903955c12.297959-21.091796 5.046606-28.376681-16.103872-16.179319l-146.34739 84.371376c-21.146286 12.193171-40.867451 41.98659-43.814098 66.217845l-28.414406 233.476796c-2.955031 24.231255 4.690326 26.800665 16.975711 5.71306l217.704055-373.599758zM105.136233 407.71884c-24.009103-4.426259-24.042636-11.874614-0.088022-16.560749l230.84032-45.117666c23.954614-4.681943 57.679692 5.612463 74.940427 22.873198l85.259981 85.259982c17.256543 17.264926 11.740485 27.768909-12.264427 23.338458L105.136233 407.71884zM570.153335 473.416935c-23.485162 6.681304-29.717972-3.047245-13.865593-21.598972l80.749892-94.506504c15.856571-18.564302 48.70981-31.843079 73.008129-29.512587l234.130674 22.44147c24.302511 2.330493 24.964773 9.699208 1.483803 16.380513l-375.506905 106.79608z"
          fill="#FFFF66" p-id="8718"></path>
</svg>