<?xml version="1.0" standalone="no"?><!DOCTYPE svg PUBLIC "-//W3C//DTD SVG 1.1//EN"
        "http://www.w3.org/Graphics/SVG/1.1/DTD/svg11.dtd">
<svg t="1650815407309" class="icon" viewBox="0 0 1024 1024" version="1.1" xmlns="http://www.w3.org/2000/svg" p-id="5007"
     width="200" height="200">
    <defs>
        <style type="text/css"></style>
    </defs>
    <path d="M855.04 10.24H627.712L512 216.064 405.504 417.792l106.496 184.32z" fill="#009BF5" p-id="5008"></path>
    <path d="M396.288 10.24H168.96l236.544 407.552L512 216.064z" fill="#3184B4" p-id="5009"></path>
    <path d="M367.616 10.24H198.656l222.208 380.928 75.776-149.504z" fill="#F1F1F1" p-id="5010"></path>
    <path d="M337.92 10.24H228.352L430.08 374.784 484.352 266.24z" fill="#D45E5E" p-id="5011"></path>
    <path d="M658.432 10.24h164.864L601.088 391.168 481.28 332.8z" fill="#F1F1F1" p-id="5012"></path>
    <path d="M688.128 10.24h105.472L571.392 391.168l-60.416-58.368z" fill="#F45656" p-id="5013"></path>
    <path d="M163.84 666.624a348.16 347.136 0 1 0 696.32 0 348.16 347.136 0 1 0-696.32 0Z" fill="#DEDEDE"
          p-id="5014"></path>
    <path d="M242.688 666.624a269.312 268.288 0 1 0 538.624 0 269.312 268.288 0 1 0-538.624 0Z" fill="#BBBBBB"
          p-id="5015"></path>
    <path d="M512 447.488c-121.856 0-220.16 98.304-220.16 219.136 0 68.608 31.744 130.048 81.92 169.984L645.12 492.544c-36.864-27.648-82.944-45.056-133.12-45.056z"
          fill="#CFCFCF" p-id="5016"></path>
    <path d="M645.12 492.544L373.76 836.608c37.888 30.72 86.016 49.152 138.24 49.152 121.856 0 220.16-98.304 220.16-219.136 0-70.656-34.816-134.144-87.04-174.08z"
          fill="#DEDEDE" p-id="5017"></path>
    <path d="M577.536 747.52H430.08c-1.024-16.384 6.144-32.768 21.504-49.152 7.168-8.192 19.456-17.408 36.864-28.672 25.6-15.36 38.912-29.696 37.888-43.008-1.024-10.24-8.192-16.384-20.48-17.408-18.432 1.024-26.624 11.264-25.6 32.768h-47.104c-1.024-48.128 23.552-71.68 73.728-71.68 46.08 2.048 69.632 20.48 70.656 56.32 0 19.456-14.336 37.888-41.984 55.296-3.072 1.024-4.096 2.048-5.12 3.072-5.12 3.072-12.288 7.168-22.528 12.288-6.144 4.096-11.264 6.144-13.312 8.192h81.92V747.52z"
          fill="#BBBBBB" p-id="5018"></path>
    <path d="M585.728 754.688H437.248c-1.024-16.384 6.144-32.768 21.504-49.152 7.168-8.192 19.456-17.408 36.864-28.672 25.6-15.36 38.912-29.696 37.888-43.008-1.024-10.24-8.192-16.384-20.48-17.408-18.432 1.024-26.624 11.264-25.6 32.768H440.32c-1.024-48.128 23.552-71.68 73.728-71.68 46.08 2.048 69.632 20.48 70.656 56.32 0 19.456-14.336 37.888-41.984 55.296-3.072 1.024-4.096 2.048-5.12 3.072-5.12 3.072-12.288 7.168-22.528 12.288-6.144 4.096-11.264 6.144-13.312 8.192h81.92v41.984z"
          fill="#DEDEDE" p-id="5019"></path>
    <path d="M592.896 762.88H445.44c-1.024-16.384 6.144-32.768 21.504-49.152 7.168-8.192 19.456-17.408 36.864-28.672 25.6-15.36 38.912-29.696 37.888-43.008-1.024-10.24-8.192-16.384-20.48-17.408-18.432 1.024-26.624 11.264-25.6 32.768h-47.104c-1.024-48.128 23.552-71.68 73.728-71.68 46.08 2.048 69.632 20.48 70.656 56.32 0 19.456-14.336 37.888-41.984 55.296-3.072 1.024-4.096 2.048-5.12 3.072-5.12 3.072-12.288 7.168-22.528 12.288-6.144 4.096-11.264 6.144-13.312 8.192h81.92v41.984z"
          fill="#FFFFFF" p-id="5020"></path>
</svg>