<?xml version="1.0" standalone="no"?><!DOCTYPE svg PUBLIC "-//W3C//DTD SVG 1.1//EN"
        "http://www.w3.org/Graphics/SVG/1.1/DTD/svg11.dtd">
<svg t="1651027975271" class="icon" viewBox="0 0 1024 1024" version="1.1" xmlns="http://www.w3.org/2000/svg"
     p-id="14370" width="200" height="200">
    <defs>
        <style type="text/css"></style>
    </defs>
    <path d="M512 16C238 16 16 238 16 512s222 496 496 496 496-222 496-496S786 16 512 16z m0 896c-220.6 0-400-179.4-400-400S291.4 112 512 112s400 179.4 400 400-179.4 400-400 400z m235.6-292.8c-20.4-17-50.6-14.2-67.6 6.2-41.6 50-103 78.8-168 78.8s-126.4-28.6-168-78.8c-17-20.4-47.4-23-67.6-6.2-20.4 17-23 47.2-6.2 67.6 60 72 148.2 113.2 241.8 113.2s181.8-41.2 241.8-113.2c17-20.4 14.2-50.6-6.2-67.6zM352 480c35.4 0 64-28.6 64-64s-28.6-64-64-64-64 28.6-64 64 28.6 64 64 64z m320-120c-51.4 0-111.8 33.8-119.8 84.2-3.4 22.4 23 36.4 39.6 21.6l19-17c29.6-26.4 92.4-26.4 122 0l19 17c17 14.8 43.2 0.6 39.6-21.6-7.6-50.4-68-84.2-119.4-84.2z"
          p-id="14371"></path>
</svg>