<?xml version="1.0" standalone="no"?><!DOCTYPE svg PUBLIC "-//W3C//DTD SVG 1.1//EN"
        "http://www.w3.org/Graphics/SVG/1.1/DTD/svg11.dtd">
<svg t="1651028004240" class="icon" viewBox="0 0 1024 1024" version="1.1" xmlns="http://www.w3.org/2000/svg" p-id="2349"
     width="200" height="200">
    <defs>
        <style type="text/css"></style>
    </defs>
    <path d="M512 16C238 16 16 238 16 512s222 496 496 496 496-222 496-496S786 16 512 16z m0 896c-220.6 0-400-179.4-400-400S291.4 112 512 112s400 179.4 400 400-179.4 400-400 400z m168-286.8c-41.6 50-103 78.8-168 78.8s-126.4-28.6-168-78.8c-17-20.4-47.2-23-67.6-6.2-20.4 17-23 47.2-6.2 67.6 60 72 148.2 113.2 241.8 113.2s181.8-41.2 241.8-113.2c17-20.4 14.2-50.6-6.2-67.6-20.4-16.8-50.6-14.2-67.6 6.2zM289 422c15.4-27.4 38.4-43.2 63-43.2s47.6 15.8 63 43.2l19 34c4.2 7.4 12.4 9.4 18.6 7.4 7.2-2.2 12-9 11.4-16.6-6.6-84.2-64.4-142.8-112-142.8s-105.4 58.6-112 142.8c-0.6 7.4 4.2 14.4 11.4 16.6 6.8 2.2 14.8-1 18.6-7.4l19-34zM672 304c-47.6 0-105.4 58.6-112 142.8-0.6 7.4 4.2 14.4 11.4 16.6 7 2.2 14.8-1 18.6-7.4l19-34c15.4-27.4 38.4-43.2 63-43.2s47.6 15.8 63 43.2l19 34c4.2 7.4 12.4 9.4 18.6 7.4 7.2-2.2 12-9 11.4-16.6-6.6-84.2-64.4-142.8-112-142.8z"
          p-id="2350"></path>
</svg>