<?xml version="1.0" standalone="no"?><!DOCTYPE svg PUBLIC "-//W3C//DTD SVG 1.1//EN"
        "http://www.w3.org/Graphics/SVG/1.1/DTD/svg11.dtd">
<svg t="1650815427033" class="icon" viewBox="0 0 1024 1024" version="1.1" xmlns="http://www.w3.org/2000/svg" p-id="5929"
     width="200" height="200">
    <defs>
        <style type="text/css"></style>
    </defs>
    <path d="M855.04 10.24H627.712L512 216.064 405.504 417.792l106.496 184.32z" fill="#009BF5" p-id="5930"></path>
    <path d="M396.288 10.24H168.96l236.544 407.552L512 216.064z" fill="#3184B4" p-id="5931"></path>
    <path d="M367.616 10.24H198.656l222.208 380.928 75.776-149.504z" fill="#F1F1F1" p-id="5932"></path>
    <path d="M337.92 10.24H228.352L430.08 374.784 484.352 266.24z" fill="#D45E5E" p-id="5933"></path>
    <path d="M658.432 10.24h164.864L601.088 391.168 481.28 332.8z" fill="#F1F1F1" p-id="5934"></path>
    <path d="M688.128 10.24h105.472L571.392 391.168l-60.416-58.368z" fill="#F45656" p-id="5935"></path>
    <path d="M163.84 666.624a348.16 347.136 0 1 0 696.32 0 348.16 347.136 0 1 0-696.32 0Z" fill="#FAC77D"
          p-id="5936"></path>
    <path d="M242.688 666.624a269.312 268.288 0 1 0 538.624 0 269.312 268.288 0 1 0-538.624 0Z" fill="#E1963F"
          p-id="5937"></path>
    <path d="M512 447.488c-121.856 0-220.16 98.304-220.16 219.136 0 68.608 31.744 130.048 81.92 169.984L645.12 492.544c-36.864-27.648-82.944-45.056-133.12-45.056z"
          fill="#F2AB57" p-id="5938"></path>
    <path d="M645.12 492.544L373.76 836.608c37.888 30.72 86.016 49.152 138.24 49.152 121.856 0 220.16-98.304 220.16-219.136 0-70.656-34.816-134.144-87.04-174.08z"
          fill="#F8C171" p-id="5939"></path>
    <path d="M431.104 686.08h48.128c-1.024 8.192 2.048 14.336 7.168 19.456 4.096 4.096 10.24 7.168 18.432 7.168 13.312-1.024 21.504-7.168 23.552-20.48 0-14.336-11.264-20.48-32.768-19.456v-30.72c19.456 1.024 29.696-4.096 30.72-17.408-1.024-9.216-7.168-14.336-20.48-15.36-14.336 1.024-21.504 7.168-22.528 18.432h-46.08c2.048-35.84 25.6-54.272 70.656-56.32 41.984 2.048 63.488 17.408 66.56 48.128 0 17.408-7.168 28.672-20.48 34.816 16.384 7.168 24.576 19.456 24.576 36.864-1.024 37.888-26.624 57.344-76.8 58.368-47.104-3.072-70.656-23.552-70.656-63.488z"
          fill="#E1963F" p-id="5940"></path>
    <path d="M439.296 693.248h48.128c-1.024 8.192 2.048 14.336 7.168 19.456 4.096 4.096 10.24 7.168 18.432 7.168 13.312-1.024 21.504-7.168 23.552-20.48 0-14.336-11.264-20.48-32.768-19.456v-30.72c19.456 1.024 29.696-4.096 30.72-17.408-1.024-9.216-7.168-14.336-20.48-15.36-14.336 1.024-21.504 7.168-22.528 18.432h-46.08c2.048-35.84 25.6-54.272 70.656-56.32 41.984 2.048 63.488 17.408 66.56 48.128 0 17.408-7.168 28.672-20.48 34.816 16.384 7.168 24.576 19.456 24.576 36.864-1.024 37.888-26.624 57.344-76.8 58.368-48.128-2.048-70.656-23.552-70.656-63.488z"
          fill="#FAC77D" p-id="5941"></path>
    <path d="M445.44 700.416h48.128c-1.024 8.192 2.048 14.336 7.168 19.456 4.096 4.096 10.24 7.168 18.432 7.168 13.312-1.024 21.504-7.168 23.552-20.48 0-14.336-11.264-20.48-32.768-19.456v-30.72c19.456 1.024 29.696-4.096 30.72-17.408-1.024-9.216-7.168-14.336-20.48-15.36-14.336 1.024-21.504 7.168-22.528 18.432h-46.08c2.048-35.84 25.6-54.272 70.656-56.32 41.984 2.048 63.488 17.408 66.56 48.128 0 17.408-7.168 28.672-20.48 34.816 16.384 7.168 24.576 19.456 24.576 36.864-1.024 37.888-26.624 57.344-76.8 58.368-47.104-2.048-70.656-23.552-70.656-63.488z"
          fill="#FFFFFF" p-id="5942"></path>
</svg>